<svg xmlns="http://www.w3.org/2000/svg" viewBox="0 0 661 732" width="661" height="732" fill="#000" role="img" aria-hidden="true">
<path d="M0 0 C0.97088562 0.00215515 1.94177124 0.0043103 2.94207764 0.00653076 C17.28306653 0.05759152 31.27727486 0.46144879 45.375 3.3125 C46.37450684 3.50585938 47.37401367 3.69921875 48.40380859 3.8984375 C106.49520775 15.38028184 163.44205819 47.31770954 199.375 95.3125 C199.84824707 95.93640625 200.32149414 96.5603125 200.80908203 97.203125 C225.73884651 130.20501539 243.0517697 167.49648352 250.375 208.3125 C250.53581055 209.19292969 250.69662109 210.07335937 250.86230469 210.98046875 C253.85115221 228.0631189 253.70653968 245.03673258 253.375 262.3125 C254.25124023 262.29155273 255.12748047 262.27060547 256.03027344 262.24902344 C259.34044302 262.18007975 262.6498293 262.13033436 265.96044922 262.09277344 C267.38212262 262.07288989 268.80371683 262.04577273 270.22509766 262.01074219 C284.69897825 261.66345077 295.53185341 264.77267164 307.375 273.3125 C308.03371094 273.78558594 308.69242188 274.25867188 309.37109375 274.74609375 C319.17105182 282.45073785 324.94105227 294.5690598 328.375 306.3125 C328.62799966 309.49327815 328.62799966 309.49327815 328.63226891 312.9831028 C328.63577498 313.63138945 328.63928105 314.27967611 328.64289337 314.94760782 C328.65218719 317.11698304 328.64728936 319.28608861 328.64242554 321.45547485 C328.64616284 323.02777683 328.65076468 324.60007695 328.65615618 326.17237413 C328.6683921 330.49107318 328.66812501 334.80969481 328.66576743 339.12840724 C328.66535941 343.78707368 328.67639716 348.44571525 328.68588257 353.10437012 C328.7024976 362.23164348 328.70799237 371.35889101 328.70910732 380.48617823 C328.71005771 387.9067985 328.71416756 395.32741024 328.72050858 402.7480278 C328.73812361 423.79073113 328.74734722 444.83341406 328.74584763 465.87612481 C328.74572776 467.57785563 328.74572776 467.57785563 328.74560547 469.31396484 C328.74552371 470.44983895 328.74544195 471.58571306 328.74535771 472.7560076 C328.74454509 491.15775538 328.76367592 509.55942126 328.7918822 527.96114536 C328.82062121 546.85972648 328.83442188 565.75826767 328.83269465 584.6568712 C328.83203102 595.26537876 328.83751119 605.87380049 328.85905075 616.48228836 C328.87727607 625.5163713 328.88159888 634.55032952 328.8680319 643.5844229 C328.86150864 648.19149476 328.86136176 652.79832744 328.8787384 657.40537643 C328.89450298 661.62857618 328.89157114 665.8513478 328.87417014 670.07453732 C328.87110763 671.5967706 328.87470423 673.11903611 328.88589029 674.64123137 C329.00491893 691.99765007 323.74158304 705.28867299 311.859375 717.98828125 C301.03186064 728.11779547 288.40745819 732.47069205 273.8785553 732.44672108 C272.91261946 732.44907331 271.94668362 732.45142554 270.95147699 732.45384905 C267.69558608 732.46053735 264.4397351 732.46008087 261.18383789 732.45967102 C258.83352599 732.46296975 256.48321466 732.46669533 254.13290405 732.4708125 C248.33850848 732.47978713 242.5441226 732.48405999 236.74972082 732.48633147 C229.80986607 732.48929442 222.87002145 732.4979924 215.93017202 732.50674575 C199.15555392 732.5275877 182.38093407 732.53805968 165.60630605 732.54687535 C157.66999202 732.55108235 149.73367875 732.55630428 141.79736535 732.56155988 C114.62839057 732.57945014 87.45941558 732.59444585 60.29043579 732.60188007 C58.58481952 732.60235483 56.87920324 732.60283072 55.17358696 732.60330774 C54.32775802 732.60354411 53.48192907 732.60378049 52.61046895 732.60402403 C48.3251108 732.60522522 44.03975267 732.60644067 39.75439453 732.60766602 C38.90395365 732.60790617 38.05351277 732.60814632 37.17730096 732.60839374 C9.60702955 732.6162858 -17.96319883 732.63971569 -45.53345145 732.67222196 C-74.6847638 732.70652958 -103.83605097 732.72623209 -132.98738384 732.72952431 C-136.18837676 732.72994185 -139.38936965 732.73042141 -142.59036255 732.73094749 C-143.77261743 732.73113228 -143.77261743 732.73113228 -144.97875626 732.7313208 C-157.65607106 732.73365169 -170.33333585 732.74930544 -183.01063284 732.76978934 C-195.7571038 732.79005801 -208.50351477 732.79551972 -221.24999887 732.78601871 C-228.1538095 732.78126585 -235.05747215 732.78286872 -241.96125984 732.80278015 C-248.2841116 732.82037802 -254.60668233 732.8194411 -260.92953694 732.80388286 C-263.21426387 732.8015017 -265.49901009 732.80585655 -267.7837075 732.81771151 C-287.98141071 732.91600427 -303.03223994 730.08266875 -318.30078125 715.796875 C-327.3138323 706.16275657 -332.73863246 693.98396942 -332.75922108 680.79897308 C-332.76157331 680.15551662 -332.76392554 679.51206015 -332.76634905 678.849105 C-332.7730128 676.69019846 -332.77258162 674.53135247 -332.77217102 672.37243652 C-332.77547129 670.80996119 -332.7791972 669.2474867 -332.7833125 667.68501329 C-332.7933222 663.38880868 -332.79704764 659.09261803 -332.79970181 654.79640341 C-332.80360794 650.16360984 -332.81318609 645.53082729 -332.82191467 640.89804077 C-332.84167073 629.70827211 -332.85174437 618.51850255 -332.86064246 607.32872081 C-332.86502692 602.0575306 -332.87039333 596.78634139 -332.87563133 591.51515198 C-332.89264303 573.98938963 -332.9071367 556.46362791 -332.91438007 538.93785858 C-332.91628993 534.39053853 -332.91821027 529.84321847 -332.92016602 525.29589844 C-332.92064976 524.16570237 -332.9211335 523.0355063 -332.9216319 521.87106186 C-332.92993034 503.56692785 -332.9552644 485.26285923 -332.98774669 466.95875376 C-333.02083308 448.1607751 -333.03883028 429.36282965 -333.04202431 410.56482172 C-333.04418798 400.0127116 -333.0529157 389.46069683 -333.07848549 378.90861511 C-333.10021406 369.92102208 -333.10823229 360.93354757 -333.09851871 351.94593126 C-333.09398023 347.3630403 -333.09583387 342.78039376 -333.11528015 338.19753647 C-333.1329571 333.99522302 -333.13187762 329.79333147 -333.11638286 325.59101325 C-333.11401364 324.07747732 -333.11829449 322.56391181 -333.13021151 321.05042094 C-333.26088557 303.34601607 -328.23934766 289.60113584 -316.109375 276.63671875 C-305.87651879 267.0635278 -293.54082672 262.31832125 -279.69921875 261.99609375 C-278.95162796 261.97531265 -278.20403717 261.95453156 -277.43379211 261.93312073 C-275.06011604 261.86805811 -272.68633513 261.8089429 -270.3125 261.75 C-268.69725505 261.70677354 -267.08202047 261.66315796 -265.46679688 261.61914062 C-261.51963701 261.51242149 -257.57237233 261.41103381 -253.625 261.3125 C-253.61041748 260.52415771 -253.59583496 259.73581543 -253.58081055 258.92358398 C-253.07123894 234.10582604 -250.78356591 210.43552221 -244.625 186.3125 C-244.44243652 185.57902344 -244.25987305 184.84554687 -244.07177734 184.08984375 C-231.53981509 134.56371407 -198.60325969 84.99227601 -157.625 54.3125 C-156.68914062 53.60262939 -156.68914062 53.60262939 -155.734375 52.87841797 C-121.23906573 26.82051869 -81.59279412 8.56230003 -38.625 2.3125 C-37.39217285 2.13066162 -36.1593457 1.94882324 -34.88916016 1.76147461 C-23.26361259 0.16175888 -11.72146231 -0.04689688 0 0 Z M-88.625 141.3125 C-89.44629395 141.97572266 -89.44629395 141.97572266 -90.28417969 142.65234375 C-114.30756549 162.21026843 -131.4283099 187.30938258 -139.625 217.3125 C-140.09679687 219.02373047 -140.09679687 219.02373047 -140.578125 220.76953125 C-142.32278056 227.97906376 -143.15251229 235.25562532 -143.875 242.625 C-143.96749023 243.54442383 -144.05998047 244.46384766 -144.15527344 245.41113281 C-144.23293945 246.3028418 -144.31060547 247.19455078 -144.390625 248.11328125 C-144.46055664 248.89872314 -144.53048828 249.68416504 -144.60253906 250.4934082 C-144.63403453 254.44643216 -144.06155232 258.38352908 -143.625 262.3125 C-49.905 262.3125 43.815 262.3125 140.375 262.3125 C141.15162098 255.3229112 141.39706911 249.87333294 140.75 243.0625 C140.61513184 241.63828735 140.61513184 241.63828735 140.47753906 240.18530273 C137.68550029 213.86751045 128.11461685 188.00125181 111.375 167.3125 C110.93285156 166.7649707 110.49070312 166.21744141 110.03515625 165.65332031 C90.47723157 141.62993451 65.37811742 124.5091901 35.375 116.3125 C34.23417969 115.99796875 33.09335937 115.6834375 31.91796875 115.359375 C-9.19184685 105.41109222 -55.56514526 114.56321582 -88.625 141.3125 Z M-47.625 426.3125 C-58.28531362 439.37190572 -64.43155358 454.90904589 -63.41015625 471.8828125 C-61.98504602 485.10240643 -57.90240086 495.90764622 -49.625 506.3125 C-49.07972656 507.02148438 -48.53445313 507.73046875 -47.97265625 508.4609375 C-42.68705407 514.95290065 -36.11557592 519.63772898 -28.625 523.3125 C-28.63166183 524.28183472 -28.63166183 524.28183472 -28.63845825 525.27075195 C-28.68283457 532.01950867 -28.71292574 538.76822367 -28.73486328 545.51708984 C-28.74489737 548.0330575 -28.75852768 550.54901357 -28.77587891 553.06494141 C-28.80024097 556.68915678 -28.81150931 560.31321744 -28.8203125 563.9375 C-28.83063507 565.05552002 -28.84095764 566.17354004 -28.85159302 567.32543945 C-28.85293704 576.76084352 -27.77533001 584.81436467 -21.625 592.3125 C-14.19141517 599.24029452 -7.13986999 600.79406623 2.8984375 600.625 C10.11048625 599.97672596 15.2662523 596.77695491 20.76953125 592.265625 C26.8936563 584.81535121 26.86030333 578.12247348 26.6328125 568.8359375 C26.62184133 566.87406854 26.61092906 564.91219717 26.6034832 562.95031166 C26.58033083 558.14385079 26.51696987 553.33857717 26.41308594 548.53320312 C26.35627044 545.82448541 26.32614704 543.11791108 26.32467651 540.40859985 C26.32182077 537.86620522 26.27920767 535.32346818 26.19216919 532.78256226 C26.21107756 529.34600335 26.31593078 526.58430191 27.375 523.3125 C30.39028044 520.46436491 33.5983345 518.94243058 37.375 517.3125 C51.03876178 507.2673611 58.87396755 492.14052238 61.84765625 475.69921875 C63.8737575 459.97946766 59.67951653 444.2063252 50.18359375 431.5859375 C49.28833984 430.46058594 49.28833984 430.46058594 48.375 429.3125 C47.82972656 428.60351562 47.28445313 427.89453125 46.72265625 427.1640625 C37.91733067 416.34905085 24.11196631 408.64374044 10.375 406.3125 C-11.82939532 404.35828664 -32.01377938 409.51735965 -47.625 426.3125 Z " transform="translate(332.625,-0.3125)"/>
</svg>